<svg width="17" height="20" viewBox="0 0 17 20" fill="none" xmlns="http://www.w3.org/2000/svg">
<path d="M7.7108 0.826745C7.9021 -0.263012 9.47236 -0.280591 9.68839 0.804606L10.4667 4.71443C10.8558 6.66913 12.3796 8.20679 14.3427 8.62584L16.2057 9.02354C17.2665 9.24997 17.264 10.7526 16.2025 10.9756L14.3582 11.363C12.387 11.7771 10.8552 13.3187 10.4657 15.2803L9.68849 19.1949C9.47291 20.2807 7.90163 20.2632 7.71073 19.1728L7.05857 15.448C6.70019 13.401 5.1011 11.7886 3.0442 11.4001L0.817717 10.9796C-0.27093 10.774 -0.273236 9.22816 0.814791 9.01934L3.05858 8.58871C5.10815 8.19535 6.6997 6.58648 7.05793 4.54581L7.7108 0.826745Z" fill="white"/>
</svg>
