<svg width="19" height="11" viewBox="0 0 19 11" fill="none" xmlns="http://www.w3.org/2000/svg">
<path d="M1 6L4 9L11.5 1.5" stroke="#B454FF" stroke-width="2" stroke-linecap="round"/>
<path d="M9.70711 7.29289L9 6.58579L7.58579 8L8.29289 8.70711L9.70711 7.29289ZM10 9L9.29289 9.70711L10 10.4142L10.7071 9.70711L10 9ZM18.2071 2.20711C18.5976 1.81658 18.5976 1.18342 18.2071 0.792893C17.8166 0.402369 17.1834 0.402369 16.7929 0.792893L18.2071 2.20711ZM8.29289 8.70711L9.29289 9.70711L10.7071 8.29289L9.70711 7.29289L8.29289 8.70711ZM10.7071 9.70711L18.2071 2.20711L16.7929 0.792893L9.29289 8.29289L10.7071 9.70711Z" fill="#B454FF"/>
</svg>
