<svg width="20" height="20" viewBox="0 0 20 20" fill="none" xmlns="http://www.w3.org/2000/svg">
<path d="M10.001 0C4.48098 0 0.000976562 4.48 0.000976562 10C0.000976562 15.52 4.48098 20 10.001 20C15.521 20 20.001 15.52 20.001 10C20.001 4.48 15.521 0 10.001 0ZM14.641 6.8C14.491 8.38 13.841 12.22 13.511 13.99C13.371 14.74 13.091 14.99 12.831 15.02C12.251 15.07 11.811 14.64 11.251 14.27C10.371 13.69 9.87098 13.33 9.02098 12.77C8.03098 12.12 8.67098 11.76 9.24098 11.18C9.39098 11.03 11.951 8.7 12.001 8.49C12.0079 8.45819 12.007 8.42517 11.9983 8.3938C11.9896 8.36244 11.9733 8.33367 11.951 8.31C11.891 8.26 11.811 8.28 11.741 8.29C11.651 8.31 10.251 9.24 7.52098 11.08C7.12098 11.35 6.76098 11.49 6.44098 11.48C6.08098 11.47 5.40098 11.28 4.89098 11.11C4.26098 10.91 3.77098 10.8 3.81098 10.45C3.83098 10.27 4.08098 10.09 4.55098 9.9C7.47098 8.63 9.41098 7.79 10.381 7.39C13.161 6.23 13.731 6.03 14.111 6.03C14.191 6.03 14.381 6.05 14.501 6.15C14.601 6.23 14.631 6.34 14.641 6.42C14.631 6.48 14.651 6.66 14.641 6.8Z" fill="currentColor"/>
</svg>
