<svg width="46" height="56" viewBox="0 0 46 56" fill="none" xmlns="http://www.w3.org/2000/svg">
<path d="M37.375 19.6H14.375V14C14.375 11.76 15.2375 9.8 16.9625 8.12C20.4125 4.76 25.875 4.76 29.0375 8.12C30.1875 9.24 30.7625 10.64 31.3375 12.04C31.625 13.44 33.35 14.28 34.7875 14C36.225 13.72 37.375 12.04 36.8 10.64C36.225 8.12 34.7875 5.88 33.0625 4.2C30.475 1.4 26.7375 0 23 0C14.95 0 8.625 6.16 8.625 14V19.6C3.7375 19.6 0 23.24 0 28V47.6C0 52.36 3.7375 56 8.625 56H37.375C42.2625 56 46 52.36 46 47.6V28C46 23.24 42.2625 19.6 37.375 19.6Z" fill="white"/>
</svg>
