<svg width="26" height="27" viewBox="0 0 26 27" fill="none" xmlns="http://www.w3.org/2000/svg">
<g filter="url(#filter0_d_341_3121)">
<path d="M13.9231 14.2763C13.9231 14.4631 13.8689 14.6456 13.7675 14.8009C13.6661 14.9562 13.5219 15.0773 13.3532 15.1487C13.1846 15.2202 12.999 15.2389 12.8199 15.2025C12.6409 15.166 12.4764 15.0761 12.3473 14.944C12.2182 14.812 12.1303 14.6437 12.0947 14.4605C12.059 14.2773 12.0773 14.0875 12.1472 13.9149C12.2171 13.7424 12.3354 13.5949 12.4872 13.4911C12.639 13.3874 12.8174 13.332 13 13.332C13.2448 13.332 13.4796 13.4315 13.6527 13.6086C13.8258 13.7857 13.9231 14.0258 13.9231 14.2763ZM13 5.77732C11.3031 5.77732 9.92308 7.04823 9.92308 8.61032V8.92509C9.92308 9.09206 9.98791 9.25219 10.1033 9.37025C10.2187 9.48832 10.3753 9.55465 10.5385 9.55465C10.7017 9.55465 10.8582 9.48832 10.9736 9.37025C11.089 9.25219 11.1538 9.09206 11.1538 8.92509V8.61032C11.1538 7.74468 11.9823 7.03643 13 7.03643C14.0177 7.03643 14.8462 7.74468 14.8462 8.61032C14.8462 9.47595 14.0177 10.1842 13 10.1842C12.8368 10.1842 12.6803 10.2505 12.5649 10.3686C12.4495 10.4867 12.3846 10.6468 12.3846 10.8138V11.4433C12.3846 11.6103 12.4495 11.7704 12.5649 11.8885C12.6803 12.0065 12.8368 12.0729 13 12.0729C13.1632 12.0729 13.3197 12.0065 13.4351 11.8885C13.5506 11.7704 13.6154 11.6103 13.6154 11.4433C13.6154 11.4105 13.6389 11.3823 13.6711 11.3757C15.0464 11.0926 16.0769 9.95986 16.0769 8.61032C16.0769 7.04823 14.6969 5.77732 13 5.77732ZM21 10.1842C21 11.8029 20.5308 13.3852 19.6518 14.7311C18.7727 16.077 17.5233 17.126 16.0615 17.7454C14.5997 18.3649 12.9911 18.5269 11.4393 18.2111C9.88743 17.8954 8.46197 17.1159 7.34315 15.9713C6.22433 14.8267 5.4624 13.3684 5.15372 11.7809C4.84504 10.1933 5.00347 8.54771 5.60897 7.05224C6.21447 5.55678 7.23985 4.27858 8.55544 3.37929C9.87103 2.47999 11.4178 2 13 2C15.121 2.00229 17.1546 2.86529 18.6544 4.39963C20.1542 5.93397 20.9978 8.01432 21 10.1842ZM19.7692 10.1842C19.7692 8.81455 19.3722 7.47565 18.6284 6.33682C17.8846 5.198 16.8274 4.31039 15.5905 3.78625C14.3536 3.26211 12.9925 3.12497 11.6794 3.39217C10.3663 3.65938 9.16013 4.31893 8.21343 5.28742C7.26674 6.25591 6.62203 7.48985 6.36084 8.83318C6.09965 10.1765 6.2337 11.5689 6.74605 12.8343C7.2584 14.0997 8.12603 15.1813 9.23922 15.9422C10.3524 16.7031 11.6612 17.1093 13 17.1093C14.7947 17.1072 16.5153 16.3769 17.7843 15.0787C19.0534 13.7804 19.7672 12.0202 19.7692 10.1842Z" fill="url(#paint0_linear_341_3121)"/>
</g>
<defs>
<filter id="filter0_d_341_3121" x="0" y="0" width="26" height="26.3684" filterUnits="userSpaceOnUse" color-interpolation-filters="sRGB">
<feFlood flood-opacity="0" result="BackgroundImageFix"/>
<feColorMatrix in="SourceAlpha" type="matrix" values="0 0 0 0 0 0 0 0 0 0 0 0 0 0 0 0 0 0 127 0" result="hardAlpha"/>
<feOffset dy="3"/>
<feGaussianBlur stdDeviation="2.5"/>
<feComposite in2="hardAlpha" operator="out"/>
<feColorMatrix type="matrix" values="0 0 0 0 0.670588 0 0 0 0 0.25098 0 0 0 0 1 0 0 0 1 0"/>
<feBlend mode="normal" in2="BackgroundImageFix" result="effect1_dropShadow_341_3121"/>
<feBlend mode="normal" in="SourceGraphic" in2="effect1_dropShadow_341_3121" result="shape"/>
</filter>
<linearGradient id="paint0_linear_341_3121" x1="20.7167" y1="15.529" x2="5.90608" y2="15.0873" gradientUnits="userSpaceOnUse">
<stop stop-color="#AC3078"/>
<stop offset="1" stop-color="#FFC4E6"/>
</linearGradient>
</defs>
</svg>
