<svg width="152" height="38" viewBox="0 0 152 38" fill="none" xmlns="http://www.w3.org/2000/svg">
<g clip-path="url(#clip0_323_2556)">
<path d="M19.9835 27.3153L20.612 23.842L15.3145 19.0632L15.371 25.6534L19.9835 27.3153Z" fill="#18C768" stroke="#18C768" stroke-width="0.01"/>
<path d="M15.3584 25.6591L9.95403 23.8879H8.25732L10.6767 27.2865L15.3647 25.6591H15.3584Z" fill="#A8DE6B" stroke="#A8DE6B" stroke-width="0.01"/>
<path d="M19.261 18.0338L15.3271 19.0517L18.0293 12.3752L19.2673 18.0338H19.261Z" fill="#18C768" stroke="#18C768" stroke-width="0.01"/>
<path d="M20.612 23.8305L15.3208 19.0633L19.2609 18.0454L20.6057 23.8305H20.612Z" fill="#0F9848" stroke="#0F9848" stroke-width="0.01"/>
<path d="M19.9897 27.3212L20.6182 23.842L22.5851 23.9053L19.9897 27.3212Z" fill="#18C768"/>
<path d="M19.9899 27.3212L15.3711 25.6536V29.8113L19.9899 27.3212Z" fill="#0F9848"/>
<path d="M15.371 32.1115L10.6831 27.2925L15.371 25.665V32.1172V32.1115Z" fill="#18C768" stroke="#18C768" stroke-width="0.01"/>
<path d="M0.019043 27.2867L8.23866 23.8938L10.658 27.2867H0.019043Z" fill="#0F9848" stroke="#0F9848" stroke-width="0.01"/>
<path d="M8.23859 23.8824L0.0126953 27.2752L6.20254 19.8455L8.23859 23.8824Z" fill="#18C768" stroke="#18C768" stroke-width="0.01"/>
<path d="M6.20264 19.8395L8.24497 23.8879V8.48779L6.20264 19.8395Z" fill="#A8DE6B"/>
<path d="M6.20266 19.8396L4.27344 17.4818L8.24499 8.49365L6.20266 19.8453V19.8396Z" fill="#0F9848"/>
<path d="M6.20241 19.8397L4.27319 17.4819L0 27.2867L6.20241 19.8339V19.8397Z" fill="#0F9848"/>
<path d="M15.3711 37.9942L10.6895 27.3096L15.3711 32.1228V37.9942Z" fill="#0F9848" stroke="#155A2C" stroke-width="0.01"/>
<path d="M15.3774 29.811L19.9774 27.3325L15.3774 38.0056V29.811Z" fill="#A8DE6B" stroke="#A8DE6B" stroke-width="0.01"/>
<path d="M30.6477 27.3384L19.9961 27.3154L22.5851 23.9053L30.6477 27.3384Z" fill="#A8DE6B" stroke="#A8DE6B" stroke-width="0.01"/>
<path d="M22.5913 23.8995L24.7028 18.678L30.6601 27.3326L22.5913 23.8995Z" fill="#0F9848" stroke="#0F9848" stroke-width="0.01"/>
<path d="M24.7027 18.6721L22.6541 8.47632L22.585 23.9052L24.7027 18.6721Z" fill="#18C768"/>
<path d="M24.703 18.6664L22.667 8.5166L30.6478 27.3038L24.703 18.6664Z" fill="#A8DE6B" stroke="#83C444" stroke-width="0.01"/>
<path d="M11.085 18.9598L12.3104 13.4507L15.3142 19.0575L11.0912 18.9598H11.085Z" fill="#0F9848" stroke="#0F9848" stroke-width="0.01"/>
<path d="M15.3143 19.0576V10.3684L12.3042 13.4392L15.3143 19.0633V19.0576Z" fill="#A8DE6B"/>
<path d="M15.3145 19.0576V10.3684L18.0229 12.3639L15.3145 19.0633V19.0576Z" fill="#0F9848"/>
<path d="M18.0167 12.3523L15.3208 10.3684V0.0402832L18.0167 12.3523Z" fill="#A8DE6B" stroke="#A8DE6B" stroke-width="0.01"/>
<path d="M15.3143 0V10.3683L12.3042 13.4392L15.3143 0Z" fill="#20C461"/>
<path d="M9.96045 23.8708L11.0853 18.9656L15.3019 19.0633L9.96045 23.8708Z" fill="#0F9848" stroke="#0F9848" stroke-width="0.01"/>
<path d="M15.3144 19.0575L15.371 25.6535L9.9541 23.8765L15.3144 19.0518V19.0575Z" fill="#A8DE6B"/>
<path d="M19.9835 27.3153L20.612 23.842L15.3145 19.0632L15.371 25.6534L19.9835 27.3153Z" fill="#18C768" stroke="#18C768" stroke-width="0.01"/>
<path d="M15.3584 25.6591L9.95403 23.8879H8.25732L10.6767 27.2865L15.3647 25.6591H15.3584Z" fill="#A8DE6B" stroke="#A8DE6B" stroke-width="0.01"/>
<path d="M19.261 18.0338L15.3271 19.0517L18.0293 12.3752L19.2673 18.0338H19.261Z" fill="#18C768" stroke="#18C768" stroke-width="0.01"/>
<path d="M20.612 23.8305L15.3208 19.0633L19.2609 18.0454L20.6057 23.8305H20.612Z" fill="#0F9848" stroke="#0F9848" stroke-width="0.01"/>
<path d="M19.9897 27.3212L20.6182 23.842L22.5851 23.9053L19.9897 27.3212Z" fill="#18C768"/>
<path d="M19.9899 27.3212L15.3711 25.6536V29.8113L19.9899 27.3212Z" fill="#0F9848"/>
<path d="M15.371 32.1115L10.6831 27.2925L15.371 25.665V32.1172V32.1115Z" fill="#18C768" stroke="#18C768" stroke-width="0.01"/>
<path d="M0.019043 27.2867L8.23866 23.8938L10.658 27.2867H0.019043Z" fill="#0F9848" stroke="#0F9848" stroke-width="0.01"/>
<path d="M8.23859 23.8824L0.0126953 27.2752L6.20254 19.8455L8.23859 23.8824Z" fill="#18C768" stroke="#18C768" stroke-width="0.01"/>
<path d="M6.20264 19.8395L8.24497 23.8879V8.48779L6.20264 19.8395Z" fill="#A8DE6B"/>
<path d="M6.20266 19.8396L4.27344 17.4818L8.24499 8.49365L6.20266 19.8453V19.8396Z" fill="#0F9848"/>
<path d="M6.20241 19.8397L4.27319 17.4819L0 27.2867L6.20241 19.8339V19.8397Z" fill="#0F9848"/>
<path d="M15.3711 37.9942L10.6895 27.3096L15.3711 32.1228V37.9942Z" fill="#0F9848" stroke="#155A2C" stroke-width="0.01"/>
<path d="M15.3774 29.811L19.9774 27.3325L15.3774 38.0056V29.811Z" fill="#A8DE6B" stroke="#A8DE6B" stroke-width="0.01"/>
<path d="M30.6477 27.3384L19.9961 27.3154L22.5851 23.9053L30.6477 27.3384Z" fill="#A8DE6B" stroke="#A8DE6B" stroke-width="0.01"/>
<path d="M22.5913 23.8995L24.7028 18.678L30.6601 27.3326L22.5913 23.8995Z" fill="#0F9848" stroke="#0F9848" stroke-width="0.01"/>
<path d="M24.7027 18.6721L22.6541 8.47632L22.585 23.9052L24.7027 18.6721Z" fill="#18C768"/>
<path d="M24.703 18.6664L22.667 8.5166L30.6478 27.3038L24.703 18.6664Z" fill="#A8DE6B" stroke="#83C444" stroke-width="0.01"/>
<path d="M11.085 18.9598L12.3104 13.4507L15.3142 19.0575L11.0912 18.9598H11.085Z" fill="#0F9848" stroke="#0F9848" stroke-width="0.01"/>
<path d="M15.3143 19.0576V10.3684L12.3042 13.4392L15.3143 19.0633V19.0576Z" fill="#A8DE6B"/>
<path d="M15.3145 19.0576V10.3684L18.0229 12.3639L15.3145 19.0633V19.0576Z" fill="#0F9848"/>
<path d="M18.0167 12.3523L15.3208 10.3684V0.0402832L18.0167 12.3523Z" fill="#A8DE6B" stroke="#A8DE6B" stroke-width="0.01"/>
<path d="M15.3143 0V10.3683L12.3042 13.4392L15.3143 0Z" fill="#20C461"/>
<path d="M9.96045 23.8708L11.0853 18.9656L15.3019 19.0633L9.96045 23.8708Z" fill="#0F9848" stroke="#0F9848" stroke-width="0.01"/>
<path d="M15.3144 19.0575L15.371 25.6535L9.9541 23.8765L15.3144 19.0518V19.0575Z" fill="#A8DE6B"/>
<path d="M46.1821 8.83297H38.748V33.4456H42.795V26.8151H46.1884C48.8466 26.8151 51.354 25.9353 53.1638 24.2043C55.0113 22.4792 56.0545 20.2537 56.0545 17.8557C56.0545 15.4577 55.0113 13.1287 53.1638 11.4725C51.354 9.78182 48.8466 8.82722 46.1884 8.82722L46.1821 8.83297ZM46.1821 23.1117H42.7887V12.4961H46.1821C49.3808 12.4961 52.0389 14.9286 52.0389 17.8557C52.0389 20.7827 49.3808 23.1117 46.1821 23.1117ZM63.5389 33.5146V26.8496H65.9268L71.7836 33.5146H77.0245L70.5519 26.217C71.7836 25.757 72.9399 25.1244 73.9013 24.2446C75.7929 22.5194 76.792 20.2594 76.792 17.8269C76.792 15.3944 75.7929 13.1402 73.9013 11.4782C71.9721 9.82207 69.5842 8.83297 66.926 8.83297H59.4919V33.5146H63.5389ZM63.5389 12.5364H66.926C70.1246 12.5364 72.7828 14.8654 72.7828 17.8269C72.7828 20.7885 70.1246 23.152 66.926 23.152H63.5389V12.5364ZM86.3313 12.4674H89.8378V8.83297H78.9349V12.4674H82.4791V30.0642H78.9349V33.5203H89.8378V30.0642H86.3313V12.4674ZM102.023 33.5146H111.229L114 12.1453H116.275L116.2 33.5146H120.435V8.83297H110.299L107.792 30.1275H105.554L103.047 8.83297H92.9108V33.5146H96.9954V12.0763H99.308L102.004 33.5146H102.023ZM150.806 26.3551L146.451 26.0388C146.024 26.6713 145.49 27.2752 144.912 27.8387C142.945 29.6387 140.362 30.622 137.591 30.622C134.819 30.622 132.237 29.6329 130.27 27.8387C128.648 26.3551 127.612 24.4516 127.341 22.3756H151.925C151.963 21.9904 152 21.5648 152 21.1393C152 13.8417 145.565 7.95312 137.591 7.95312C129.616 7.95312 123.181 13.8417 123.181 21.1393C123.181 28.4368 129.616 34.3254 137.591 34.3254C143.523 34.3254 148.613 31.0476 150.806 26.3551ZM137.591 11.6508C140.362 11.6508 142.945 12.6399 144.912 14.4341C146.225 15.6302 147.149 17.1483 147.608 18.7355H127.574C128.039 17.1483 128.963 15.6302 130.27 14.4341C132.237 12.6341 134.819 11.6508 137.591 11.6508Z" fill="white"/>
</g>
<defs>
<clipPath id="clip0_323_2556">
<rect width="152" height="38" fill="white"/>
</clipPath>
</defs>
</svg>
