<svg width="34" height="48" viewBox="0 0 34 48" fill="none" xmlns="http://www.w3.org/2000/svg">
<path d="M7.7108 28.8267C7.9021 27.737 9.47236 27.7194 9.68839 28.8046L10.4667 32.7144C10.8558 34.6691 12.3796 36.2068 14.3427 36.6258L16.2057 37.0235C17.2665 37.25 17.264 38.7526 16.2025 38.9756L14.3582 39.363C12.387 39.7771 10.8552 41.3187 10.4657 43.2803L9.68849 47.1949C9.47291 48.2807 7.90163 48.2632 7.71073 47.1728L7.05857 43.448C6.70019 41.401 5.1011 39.7886 3.0442 39.4001L0.817717 38.9796C-0.27093 38.774 -0.273236 37.2282 0.814791 37.0193L3.05858 36.5887C5.10815 36.1954 6.6997 34.5865 7.05793 32.5458L7.7108 28.8267Z" fill="white"/>
<path d="M24.7108 17.8267C24.9021 16.737 26.4724 16.7194 26.6884 17.8046L27.4667 21.7144C27.8558 23.6691 29.3796 25.2068 31.3427 25.6258L33.2057 26.0235C34.2665 26.25 34.264 27.7526 33.2025 27.9756L31.3582 28.363C29.387 28.7771 27.8552 30.3187 27.4657 32.2803L26.6885 36.1949C26.4729 37.2807 24.9016 37.2632 24.7107 36.1728L24.0586 32.448C23.7002 30.401 22.1011 28.7886 20.0442 28.4001L17.8177 27.9796C16.7291 27.774 16.7268 26.2282 17.8148 26.0193L20.0586 25.5887C22.1082 25.1954 23.6997 23.5865 24.0579 21.5458L24.7108 17.8267Z" fill="white"/>
<path d="M12.7108 0.826745C12.9021 -0.263012 14.4724 -0.280591 14.6884 0.804606L15.4667 4.71443C15.8558 6.66913 17.3796 8.20679 19.3427 8.62584L21.2057 9.02354C22.2665 9.24997 22.264 10.7526 21.2025 10.9756L19.3582 11.363C17.387 11.7771 15.8552 13.3187 15.4657 15.2803L14.6885 19.1949C14.4729 20.2807 12.9016 20.2632 12.7107 19.1728L12.0586 15.448C11.7002 13.401 10.1011 11.7886 8.0442 11.4001L5.81772 10.9796C4.72907 10.774 4.72676 9.22816 5.81479 9.01934L8.05858 8.58871C10.1082 8.19535 11.6997 6.58648 12.0579 4.54581L12.7108 0.826745Z" fill="white"/>
</svg>
